{
    "accessors" : [
        {
            "bufferView" : 0,
            "componentType" : 5123,
            "count" : 2796,
            "max" : [
                736
            ],
            "min" : [
                0
            ],
            "type" : "SCALAR"
        },
        {
            "bufferView" : 1,
            "componentType" : 5126,
            "count" : 737,
            "max" : [
                -1.6869629621505737,
                3.7384490966796875,
                -1.4423660039901733
            ],
            "min" : [
                -2.285723924636841,
                -1.6615339517593384,
                -5.6080732345581055
            ],
            "type" : "VEC3"
        },
        {
            "bufferView" : 2,
            "componentType" : 5126,
            "count" : 737,
            "max" : [
                0.9159529805183411,
                0.9829370006918907
            ],
            "min" : [
                0.11018499732017517,
                0.006578028202056885
            ],
            "type" : "VEC2"
        },
        {
            "bufferView" : 3,
            "componentType" : 5123,
            "count" : 9363,
            "max" : [
                1898
            ],
            "min" : [
                0
            ],
            "type" : "SCALAR"
        },
        {
            "bufferView" : 4,
            "componentType" : 5126,
            "count" : 1899,
            "max" : [
                1.4256939888000488,
                10.275911331176758,
                2.597754955291748
            ],
            "min" : [
                -2.7197859287261963,
                -0.8393490314483643,
                -2.2903800010681152
            ],
            "type" : "VEC3"
        },
        {
            "bufferView" : 5,
            "componentType" : 5126,
            "count" : 1899,
            "max" : [
                0.999442994594574,
                0.9215549975633621
            ],
            "min" : [
                -0.0005200000014156103,
                0.0007079839706420898
            ],
            "type" : "VEC2"
        },
        {
            "bufferView" : 6,
            "componentType" : 5123,
            "count" : 2541,
            "max" : [
                614
            ],
            "min" : [
                0
            ],
            "type" : "SCALAR"
        },
        {
            "bufferView" : 7,
            "componentType" : 5126,
            "count" : 615,
            "max" : [
                5.311755180358887,
                -2.1855180263519287,
                -3.400796890258789
            ],
            "min" : [
                2.429058074951172,
                -4.955161094665527,
                -9.647050857543945
            ],
            "type" : "VEC3"
        },
        {
            "bufferView" : 8,
            "componentType" : 5126,
            "count" : 615,
            "max" : [
                0.9907919764518738,
                0.9867470003664494
            ],
            "min" : [
                0.02214900031685829,
                0.012314021587371826
            ],
            "type" : "VEC2"
        },
        {
            "bufferView" : 9,
            "componentType" : 5123,
            "count" : 2199,
            "max" : [
                1728
            ],
            "min" : [
                0
            ],
            "type" : "SCALAR"
        },
        {
            "bufferView" : 10,
            "componentType" : 5126,
            "count" : 1729,
            "max" : [
                0.36509400606155396,
                6.9500579833984375,
                -0.5877820253372192
            ],
            "min" : [
                -0.990572988986969,
                2.5251240730285645,
                -3.9347760677337646
            ],
            "type" : "VEC3"
        },
        {
            "bufferView" : 11,
            "componentType" : 5126,
            "count" : 1729,
            "max" : [
                0.982895016670227,
                0.9394779987633228
            ],
            "min" : [
                0.09390600025653839,
                0.003911018371582031
            ],
            "type" : "VEC2"
        },
        {
            "bufferView" : 12,
            "componentType" : 5123,
            "count" : 4029,
            "max" : [
                822
            ],
            "min" : [
                0
            ],
            "type" : "SCALAR"
        },
        {
            "bufferView" : 13,
            "componentType" : 5126,
            "count" : 823,
            "max" : [
                0.8701379895210266,
                0.4248279929161072,
                -2.4825360774993896
            ],
            "min" : [
                -1.3022589683532715,
                -4.290122985839844,
                -9.824614524841309
            ],
            "type" : "VEC3"
        },
        {
            "bufferView" : 14,
            "componentType" : 5126,
            "count" : 823,
            "max" : [
                0.9908589720726013,
                0.8659030050039291
            ],
            "min" : [
                0.06991100311279297,
                0.10787999629974365
            ],
            "type" : "VEC2"
        },
        {
            "bufferView" : 15,
            "componentType" : 5121,
            "count" : 96,
            "max" : [
                95
            ],
            "min" : [
                0
            ],
            "type" : "SCALAR"
        },
        {
            "bufferView" : 16,
            "componentType" : 5126,
            "count" : 96,
            "max" : [
                -2.224107027053833,
                -0.044523999094963074,
                -4.210028171539307
            ],
            "min" : [
                -2.249016046524048,
                -0.349016010761261,
                -4.550144195556641
            ],
            "type" : "VEC3"
        },
        {
            "bufferView" : 17,
            "componentType" : 5126,
            "count" : 96,
            "max" : [
                0.9964399933815002,
                0.9964399999007583
            ],
            "min" : [
                0.0035600000992417336,
                0.003560006618499756
            ],
            "type" : "VEC2"
        },
        {
            "bufferView" : 18,
            "componentType" : 5123,
            "count" : 17589,
            "max" : [
                3453
            ],
            "min" : [
                0
            ],
            "type" : "SCALAR"
        },
        {
            "bufferView" : 19,
            "componentType" : 5126,
            "count" : 3454,
            "max" : [
                -0.3953630030155182,
                0.7161440253257751,
                0.29848700761795044
            ],
            "min" : [
                -2.260430097579956,
                -3.27423095703125,
                -4.699769973754883
            ],
            "type" : "VEC3"
        },
        {
            "bufferView" : 20,
            "componentType" : 5126,
            "count" : 3454,
            "max" : [
                0.9795380234718323,
                0.8705389946699142
            ],
            "min" : [
                0.012934999540448189,
                0.2415500283241272
            ],
            "type" : "VEC2"
        }
    ],
    "asset" : {
        "generator" : "Khronos Blender glTF 2.0 exporter",
        "version" : "2.0"
    },
    "bufferViews" : [
        {
            "buffer" : 0,
            "byteLength" : 5592,
            "byteOffset" : 0,
            "target" : 34963
        },
        {
            "buffer" : 0,
            "byteLength" : 8844,
            "byteOffset" : 5592,
            "target" : 34962
        },
        {
            "buffer" : 0,
            "byteLength" : 5896,
            "byteOffset" : 14436,
            "target" : 34962
        },
        {
            "buffer" : 0,
            "byteLength" : 18726,
            "byteOffset" : 20332,
            "target" : 34963
        },
        {
            "buffer" : 0,
            "byteLength" : 22788,
            "byteOffset" : 39060,
            "target" : 34962
        },
        {
            "buffer" : 0,
            "byteLength" : 15192,
            "byteOffset" : 61848,
            "target" : 34962
        },
        {
            "buffer" : 0,
            "byteLength" : 5082,
            "byteOffset" : 77040,
            "target" : 34963
        },
        {
            "buffer" : 0,
            "byteLength" : 7380,
            "byteOffset" : 82124,
            "target" : 34962
        },
        {
            "buffer" : 0,
            "byteLength" : 4920,
            "byteOffset" : 89504,
            "target" : 34962
        },
        {
            "buffer" : 0,
            "byteLength" : 4398,
            "byteOffset" : 94424,
            "target" : 34963
        },
        {
            "buffer" : 0,
            "byteLength" : 20748,
            "byteOffset" : 98824,
            "target" : 34962
        },
        {
            "buffer" : 0,
            "byteLength" : 13832,
            "byteOffset" : 119572,
            "target" : 34962
        },
        {
            "buffer" : 0,
            "byteLength" : 8058,
            "byteOffset" : 133404,
            "target" : 34963
        },
        {
            "buffer" : 0,
            "byteLength" : 9876,
            "byteOffset" : 141464,
            "target" : 34962
        },
        {
            "buffer" : 0,
            "byteLength" : 6584,
            "byteOffset" : 151340,
            "target" : 34962
        },
        {
            "buffer" : 0,
            "byteLength" : 96,
            "byteOffset" : 157924,
            "target" : 34963
        },
        {
            "buffer" : 0,
            "byteLength" : 1152,
            "byteOffset" : 158020,
            "target" : 34962
        },
        {
            "buffer" : 0,
            "byteLength" : 768,
            "byteOffset" : 159172,
            "target" : 34962
        },
        {
            "buffer" : 0,
            "byteLength" : 35178,
            "byteOffset" : 159940,
            "target" : 34963
        },
        {
            "buffer" : 0,
            "byteLength" : 41448,
            "byteOffset" : 195120,
            "target" : 34962
        },
        {
            "buffer" : 0,
            "byteLength" : 27632,
            "byteOffset" : 236568,
            "target" : 34962
        }
    ],
    "buffers" : [
        {
            "byteLength" : 264200,
            "uri" : "Swimmer.bin"
        }
    ],
    "meshes" : [
        {
            "name" : "Front_Arm_1003Mesh",
            "primitives" : [
                {
                    "attributes" : {
                        "POSITION" : 1,
                        "TEXCOORD_0" : 2
                    },
                    "indices" : 0
                }
            ]
        },
        {
            "name" : "Body_1005Mesh",
            "primitives" : [
                {
                    "attributes" : {
                        "POSITION" : 4,
                        "TEXCOORD_0" : 5
                    },
                    "indices" : 3
                }
            ]
        },
        {
            "name" : "BackLeg_1001Mesh",
            "primitives" : [
                {
                    "attributes" : {
                        "POSITION" : 7,
                        "TEXCOORD_0" : 8
                    },
                    "indices" : 6
                }
            ]
        },
        {
            "name" : "Head_1006Mesh",
            "primitives" : [
                {
                    "attributes" : {
                        "POSITION" : 10,
                        "TEXCOORD_0" : 11
                    },
                    "indices" : 9
                }
            ]
        },
        {
            "name" : "FrontLeg_1002Mesh",
            "primitives" : [
                {
                    "attributes" : {
                        "POSITION" : 13,
                        "TEXCOORD_0" : 14
                    },
                    "indices" : 12
                }
            ]
        },
        {
            "name" : "WatchFaceMesh",
            "primitives" : [
                {
                    "attributes" : {
                        "POSITION" : 16,
                        "TEXCOORD_0" : 17
                    },
                    "indices" : 15
                }
            ]
        },
        {
            "name" : "Pant_Watch_1004Mesh",
            "primitives" : [
                {
                    "attributes" : {
                        "POSITION" : 19,
                        "TEXCOORD_0" : 20
                    },
                    "indices" : 18
                }
            ]
        }
    ],
    "nodes" : [
        {
            "mesh" : 2,
            "name" : "BackLeg_1001",
            "rotation" : [
                -7.450580596923828e-08,
                -4.6566123179658803e-10,
                -1.7462298274040222e-09,
                1.0
            ],
            "scale" : [
                0.9999999403953552,
                1.0,
                1.0000001192092896
            ],
            "translation" : [
                -1.4901161193847656e-08,
                3.5762786865234375e-07,
                4.76837158203125e-07
            ]
        },
        {
            "mesh" : 1,
            "name" : "Body_1005",
            "rotation" : [
                -7.450580596923828e-08,
                -4.6566123179658803e-10,
                -1.7462298274040222e-09,
                1.0
            ],
            "scale" : [
                0.9999999403953552,
                1.0,
                1.0000001192092896
            ],
            "translation" : [
                -1.4901161193847656e-08,
                3.5762786865234375e-07,
                4.76837158203125e-07
            ]
        },
        {
            "mesh" : 0,
            "name" : "Front_Arm_1003",
            "rotation" : [
                -7.450580596923828e-08,
                -4.6566123179658803e-10,
                -1.7462298274040222e-09,
                1.0
            ],
            "scale" : [
                0.9999999403953552,
                1.0,
                1.0000001192092896
            ],
            "translation" : [
                -1.4901161193847656e-08,
                3.5762786865234375e-07,
                4.76837158203125e-07
            ]
        },
        {
            "mesh" : 4,
            "name" : "FrontLeg_1002",
            "rotation" : [
                -7.450580596923828e-08,
                -4.6566123179658803e-10,
                -1.7462298274040222e-09,
                1.0
            ],
            "scale" : [
                0.9999999403953552,
                1.0,
                1.0000001192092896
            ],
            "translation" : [
                -1.4901161193847656e-08,
                3.5762786865234375e-07,
                4.76837158203125e-07
            ]
        },
        {
            "mesh" : 3,
            "name" : "Head_1006",
            "rotation" : [
                -7.450580596923828e-08,
                -4.6566123179658803e-10,
                -1.7462298274040222e-09,
                1.0
            ],
            "scale" : [
                0.9999999403953552,
                1.0,
                1.0000001192092896
            ],
            "translation" : [
                -1.4901161193847656e-08,
                3.5762786865234375e-07,
                4.76837158203125e-07
            ]
        },
        {
            "mesh" : 6,
            "name" : "Pant_Watch_1004",
            "rotation" : [
                -7.450580596923828e-08,
                -4.6566123179658803e-10,
                -1.7462298274040222e-09,
                1.0
            ],
            "scale" : [
                0.9999999403953552,
                1.0,
                1.0000001192092896
            ],
            "translation" : [
                -1.4901161193847656e-08,
                3.5762786865234375e-07,
                4.76837158203125e-07
            ]
        },
        {
            "children" : [
                0,
                1,
                2,
                3,
                4,
                5,
                7
            ],
            "name" : "Swimmer_geo",
            "rotation" : [
                0.4557255506515503,
                0.5519532561302185,
                -0.44260603189468384,
                0.5401498079299927
            ],
            "scale" : [
                0.036740005016326904,
                0.03673999384045601,
                0.03673999756574631
            ],
            "translation" : [
                -0.10487999767065048,
                0.19760999083518982,
                8.637806914180146e-09
            ]
        },
        {
            "mesh" : 5,
            "name" : "WatchFace",
            "rotation" : [
                -7.450580596923828e-08,
                -4.6566123179658803e-10,
                -1.7462298274040222e-09,
                1.0
            ],
            "scale" : [
                0.9999999403953552,
                1.0,
                1.0000001192092896
            ],
            "translation" : [
                -1.4901161193847656e-08,
                3.5762786865234375e-07,
                4.76837158203125e-07
            ]
        }
    ],
    "scene" : 0,
    "scenes" : [
        {
            "name" : "Scene",
            "nodes" : [
                6
            ]
        }
    ]
}
